PathFileType  4	(X/Y/Z) C:\Users\antoi\Documents\MyRepositories\mobilecap\ResultsAnalysis
DataRate	CameraRate	NumFrames	NumMarkers	Units	OrigDataRate	OrigDataStartFrame	OrigNumFrames
100.0	100.0	5	51	mm	100.0	89	237
Frame#	Time	r_knee			r_shank_antsup			r_ankle			r_calc			r_5meta			r_toe			L_knee			L_shank_antsup			L_ankle			L_calc			L_5meta			L_toe			r_sh2			r_sh3			r_sh4			L_sh2			L_sh3			r_thigh1			r_thigh2			r_thigh3			r_thigh4			r_thigh5			L_thigh1			L_thigh2			L_thigh3			L_thigh4			r.ASIS			r.PSIS			L.ASIS			L.PSIS			C7			R_Shoulder			L_Shoulder			R_Sternum			L_Sternum			R_humerus			R_elbow_med			R_elbow_lat			R_forearm			R_wrist_radius			R_wrist_ulna			L_humerus			L_elbow_med			L_elbow_lat			L_forearm			L_wrist_radius			L_wrist_ulna			R_HJC			L_HJC			R_HJC_reg			L_HJC_reg			
		X1	Y1	Z1	X2	Y2	Z2	X3	Y3	Z3	X4	Y4	Z4	X5	Y5	Z5	X6	Y6	Z6	X7	Y7	Z7	X8	Y8	Z8	X9	Y9	Z9	X10	Y10	Z10	X11	Y11	Z11	X12	Y12	Z12	X13	Y13	Z13	X14	Y14	Z14	X15	Y15	Z15	X16	Y16	Z16	X17	Y17	Z17	X18	Y18	Z18	X19	Y19	Z19	X20	Y20	Z20	X21	Y21	Z21	X22	Y22	Z22	X23	Y23	Z23	X24	Y24	Z24	X25	Y25	Z25	X26	Y26	Z26	X27	Y27	Z27	X28	Y28	Z28	X29	Y29	Z29	X30	Y30	Z30	X31	Y31	Z31	X32	Y32	Z32	X33	Y33	Z33	X34	Y34	Z34	X35	Y35	Z35	X36	Y36	Z36	X37	Y37	Z37	X38	Y38	Z38	X39	Y39	Z39	X40	Y40	Z40	X41	Y41	Z41	X42	Y42	Z42	X43	Y43	Z43	X44	Y44	Z44	X45	Y45	Z45	X46	Y46	Z46	X47	Y47	Z47	X48	Y48	Z48	X49	Y49	Z49	X50	Y50	Z50	X51	Y51	Z51	

89	0.88000000	-865.35341	711.77232	-445.41720	-895.18215	645.08546	-422.20334	-1129.54803	450.01677	-454.34867	-1211.79898	450.15157	-490.39556	-1063.98204	360.10064	-431.16958	-1017.96244	359.69007	-488.70646	-929.96425	711.48658	-751.00539	-932.49546	635.42344	-756.00915	-1154.16438	421.45543	-725.39277	-1234.86343	400.03306	-677.23828	-1081.12259	350.49888	-752.59965	-1026.19445	362.85337	-698.41301	-976.40400	565.50783	-418.05262	-947.74811	697.53367	-434.46333	-1035.94878	622.20129	-432.09470	-998.08734	695.07306	-771.89061	-1070.63672	595.86023	-769.12762	-832.65010	1023.29677	-459.74678	-808.75393	913.75339	-450.18232	-847.38969	884.87547	-404.25157	-918.90552	1011.30293	-386.41869	-903.13298	895.22892	-395.77636	-886.91660	1000.30814	-755.96497	-872.76944	862.18259	-764.07469	-1003.40620	991.41165	-754.90323	-981.69528	851.19193	-759.43862	-843.62927	1145.18820	-461.04881	-1022.29215	1215.57998	-512.69993	-872.47000	1143.42887	-716.72930	-1037.33251	1210.77006	-619.29358	-818.94414	1636.19411	-586.62473	-761.52451	1580.21364	-446.46724	-761.10077	1585.20300	-736.76183	-723.55226	1522.83931	-572.16055	-723.71752	1522.98196	-614.09661	-742.44793	1406.73845	-287.98668	-766.33213	1281.60717	-278.46998	-745.64893	1342.46663	-230.27978	-635.58792	1345.52382	-277.19297	-535.75802	1336.75070	-330.98749	-525.01877	1302.89299	-305.17193	-701.90678	1498.56265	-806.78693	-685.23796	1285.43742	-887.21053	-661.03988	1332.76866	-933.55128	-562.88088	1339.87992	-868.73133	-469.68864	1313.28479	-789.92082	-453.88035	1295.20228	-820.16398	-930.50551	1091.79685	-478.01283	-950.67954	1092.17123	-677.28583	-929.20156	1089.46022	-483.15680	-952.90443	1081.88034	-651.14724	
90	0.89000000	-850.48060	718.11092	-443.45940	-882.13129	652.13738	-419.56016	-1116.58924	458.57860	-454.50762	-1197.57178	466.12027	-490.58072	-1058.42669	363.06396	-431.35894	-1012.85361	358.20623	-488.82350	-924.64925	717.20658	-752.26140	-927.94735	641.67826	-757.39977	-1149.25709	426.68563	-725.53690	-1230.01822	409.47875	-677.39294	-1079.40045	351.85896	-752.63023	-1023.72120	361.93112	-698.86895	-964.09966	573.42348	-416.46222	-933.81323	705.17489	-432.99172	-1022.87369	630.68271	-431.83718	-993.52411	701.66717	-772.58452	-1066.44218	602.51214	-769.30843	-818.53407	1029.53869	-459.14444	-794.68620	920.42280	-448.49203	-833.54799	891.82239	-402.35609	-905.71190	1017.50131	-386.64204	-889.09950	901.52615	-394.82205	-874.43447	1005.34978	-757.16053	-863.49384	866.74332	-765.41927	-991.15942	998.68921	-756.90129	-972.64135	858.10712	-761.57594	-830.96904	1152.83507	-461.54734	-1009.54194	1220.50860	-513.82158	-857.84618	1150.92919	-715.85757	-1023.98456	1216.12735	-620.93923	-813.83640	1644.13124	-585.91135	-757.00536	1591.70234	-446.74213	-755.00614	1596.87319	-734.64706	-715.76129	1531.72357	-569.49231	-716.45935	1532.28016	-613.32030	-734.85238	1423.55732	-283.35807	-754.42756	1298.52185	-271.51953	-737.00860	1361.18188	-223.79961	-627.39501	1368.32007	-270.76770	-527.09866	1363.02232	-324.32457	-514.97913	1330.30988	-297.70383	-693.12136	1514.30536	-806.52986	-670.30929	1303.94102	-892.50723	-647.48818	1353.13762	-937.45796	-550.08934	1363.03970	-872.00158	-456.83704	1339.09828	-791.89422	-440.33338	1321.83049	-822.21876	-916.82186	1098.21822	-478.60241	-935.43986	1098.56933	-678.02655	-915.07813	1095.67537	-484.27533	-937.61440	1088.83930	-651.41007	
91	0.90000000	-834.46663	725.00464	-441.60889	-867.64770	659.76142	-417.09541	-1101.35764	466.76996	-454.84572	-1180.14796	482.26752	-491.05935	-1052.11117	365.99572	-431.47030	-1007.35571	356.24960	-488.94602	-917.41625	723.64417	-753.71277	-921.79104	648.76731	-759.27078	-1143.02735	432.86042	-725.40199	-1223.47085	420.57482	-677.40848	-1077.00450	353.65682	-752.60005	-1020.76196	360.67684	-699.22275	-949.97612	581.49591	-415.00118	-918.61502	713.10708	-431.65911	-1008.18217	639.14914	-431.56650	-987.28672	708.92081	-773.22204	-1060.45976	609.96153	-769.54723	-805.39975	1036.25699	-458.08817	-780.25884	927.63011	-447.21571	-819.20898	898.79343	-400.50527	-892.96130	1023.83285	-386.35099	-874.94264	907.95682	-393.95406	-861.60522	1011.03663	-758.23833	-853.08621	872.21772	-766.79169	-978.45494	1005.98977	-758.68879	-962.25803	865.28009	-763.68672	-818.48316	1161.34645	-462.01854	-996.98868	1225.74593	-514.96508	-843.53737	1159.04570	-714.87400	-1010.82153	1221.81616	-622.68306	-807.91450	1651.77427	-585.04215	-752.01676	1602.98734	-446.70880	-748.64385	1608.23453	-732.49920	-707.69806	1540.00059	-567.27364	-708.73212	1540.98252	-612.46517	-727.52083	1440.07320	-278.90679	-744.08258	1314.81778	-263.74375	-729.03040	1379.40853	-217.53356	-619.91920	1390.16201	-264.35617	-519.22292	1388.00954	-317.60902	-505.91236	1356.40392	-290.18350	-684.54881	1529.72628	-805.97278	-656.32657	1322.40810	-897.64862	-634.92847	1373.27730	-941.40553	-538.25364	1385.60669	-875.28097	-445.13670	1363.90345	-794.22435	-427.87409	1347.36932	-824.44668	-903.15793	1105.28258	-479.11876	-920.23784	1105.43616	-678.68150	-900.96291	1102.38601	-485.39108	-922.31086	1096.32116	-651.62455	
92	0.91000000	-817.85567	732.09666	-439.56073	-852.05924	667.73961	-414.89985	-1084.50801	473.97573	-455.37825	-1159.89295	497.49588	-492.37533	-1045.46212	368.26909	-431.70286	-1001.75843	353.53401	-488.90063	-908.20439	730.58735	-755.52288	-913.95017	656.17131	-761.60297	-1135.27500	439.77645	-725.14956	-1215.04356	433.13126	-677.18614	-1073.91740	355.92890	-752.45831	-1017.32518	359.20644	-699.48060	-934.47944	589.43307	-413.84938	-902.63154	721.17005	-430.41518	-992.28817	647.27386	-431.47029	-979.32124	716.60363	-773.86101	-1052.81023	617.93583	-769.71626	-792.98868	1043.48300	-456.65914	-765.58317	935.12819	-445.62062	-804.84928	906.05274	-398.37581	-880.79862	1030.15911	-385.77825	-861.07152	914.38332	-393.01406	-848.76202	1017.35218	-759.30143	-841.80976	878.43752	-768.35561	-965.68801	1013.12688	-759.95139	-951.00592	872.35850	-765.50579	-806.23246	1170.02770	-462.09622	-984.72061	1231.11505	-515.92713	-829.85823	1167.18094	-714.10200	-997.89042	1227.78530	-624.14338	-801.17997	1659.00074	-583.87859	-746.53274	1613.19636	-447.08413	-742.03675	1619.00783	-730.20306	-699.58576	1548.56000	-566.13849	-700.31502	1548.94286	-611.27431	-720.36182	1456.02742	-274.64442	-734.53329	1330.56208	-255.86208	-721.68631	1396.80569	-211.62923	-613.01573	1410.90371	-257.80125	-512.06595	1411.43975	-310.95972	-497.76147	1380.98950	-282.71608	-676.24328	1544.61353	-805.19845	-643.46008	1340.49471	-903.28675	-623.16734	1393.10385	-945.54339	-527.27859	1407.32856	-878.37159	-434.32043	1387.31271	-796.55930	-416.50350	1371.64442	-826.65388	-889.80301	1112.53757	-479.44619	-905.54214	1112.43898	-679.11978	-887.26666	1108.85129	-486.29233	-907.43892	1103.75061	-652.05384	
93	0.92000000	-800.85839	739.17979	-437.25403	-835.76394	675.65161	-412.99027	-1066.55664	479.89089	-455.89904	-1137.62125	510.61087	-494.62221	-1038.63019	369.82509	-431.99796	-995.88080	350.37395	-488.32214	-897.36156	737.57638	-757.43698	-904.41643	663.42931	-764.20019	-1125.74126	447.11126	-725.09414	-1204.50172	446.97143	-676.99530	-1070.13976	358.69743	-752.39820	-1013.34962	357.64706	-699.79104	-917.99111	597.01817	-412.98733	-886.31336	728.97423	-429.32252	-975.56889	654.78249	-431.72055	-969.61588	724.54140	-774.69157	-1043.77949	626.54064	-770.16174	-780.60667	1050.78857	-454.79774	-751.03214	942.76205	-443.20275	-790.87737	913.37771	-396.22580	-869.16022	1036.16395	-385.42799	-847.53350	920.62879	-391.89127	-836.30168	1024.07512	-760.72692	-829.89931	885.08147	-770.29488	-953.24436	1019.96670	-760.89139	-939.14428	879.12505	-766.98379	-794.30347	1178.26020	-461.68916	-972.70278	1236.43355	-516.83038	-816.82819	1174.84185	-713.48069	-985.33063	1233.79393	-625.32583	-793.61630	1665.67558	-582.62888	-740.57281	1621.69719	-448.20641	-735.19782	1628.93914	-727.65999	-690.90655	1557.05558	-565.12092	-690.92990	1556.21345	-609.75210	-713.36932	1471.19238	-270.51030	-725.43478	1345.62728	-248.33715	-714.88468	1413.34636	-205.66292	-606.50573	1430.44839	-251.18331	-505.57053	1433.15142	-304.39043	-490.42256	1403.93491	-275.35776	-668.04584	1558.74212	-804.27237	-631.58478	1358.00345	-909.31149	-612.17811	1412.52179	-949.62098	-517.11148	1427.99770	-881.23665	-424.37874	1409.01534	-798.63207	-406.07710	1394.38497	-828.57601	-877.00608	1119.56705	-479.57831	-891.52425	1119.19684	-679.34345	-874.06917	1114.80739	-486.73919	-893.35401	1110.77601	-652.43374	
